<svg width="24" height="24" viewBox="0 0 24 24" xmlns="http://www.w3.org/2000/svg">
<path d="M19 19H5V20C5 20.2652 4.89464 20.5196 4.70711 20.7071C4.51957 20.8946 4.26522 21 4 21H3C2.73478 21 2.48043 20.8946 2.29289 20.7071C2.10536 20.5196 2 20.2652 2 20V10L4.48 4.212C4.63432 3.852 4.89096 3.54524 5.21805 3.32978C5.54515 3.11432 5.92832 2.99965 6.32 3H17.68C18.0713 3.00004 18.4541 3.1149 18.7808 3.33033C19.1075 3.54577 19.3638 3.85231 19.518 4.212L22 10V20C22 20.2652 21.8946 20.5196 21.7071 20.7071C21.5196 20.8946 21.2652 21 21 21H20C19.7348 21 19.4804 20.8946 19.2929 20.7071C19.1054 20.5196 19 20.2652 19 20V19ZM20 12H4V17H20V12ZM4.176 10H19.824L17.681 5H6.32L4.176 10ZM6.5 16C6.10218 16 5.72064 15.842 5.43934 15.5607C5.15804 15.2794 5 14.8978 5 14.5C5 14.1022 5.15804 13.7206 5.43934 13.4393C5.72064 13.158 6.10218 13 6.5 13C6.89782 13 7.27936 13.158 7.56066 13.4393C7.84196 13.7206 8 14.1022 8 14.5C8 14.8978 7.84196 15.2794 7.56066 15.5607C7.27936 15.842 6.89782 16 6.5 16ZM17.5 16C17.1022 16 16.7206 15.842 16.4393 15.5607C16.158 15.2794 16 14.8978 16 14.5C16 14.1022 16.158 13.7206 16.4393 13.4393C16.7206 13.158 17.1022 13 17.5 13C17.8978 13 18.2794 13.158 18.5607 13.4393C18.842 13.7206 19 14.1022 19 14.5C19 14.8978 18.842 15.2794 18.5607 15.5607C18.2794 15.842 17.8978 16 17.5 16Z" />
</svg>
