<svg width="80" height="80" viewBox="0 0 80 80" fill="none" xmlns="http://www.w3.org/2000/svg">
<path d="M70 9.97329V70.0266C69.993 70.902 69.6419 71.7395 69.0226 72.3583C68.4033 72.977 67.5654 73.3272 66.69 73.3333H13.31C12.4327 73.3333 11.5913 72.985 10.9707 72.365C10.35 71.745 10.0009 70.9039 10 70.0266V9.97329C10.007 9.09789 10.3581 8.26038 10.9774 7.64167C11.5967 7.02296 12.4346 6.67273 13.31 6.66663H66.69C68.5167 6.66663 70 8.14663 70 9.97329ZM63.3333 13.3333H16.6667V66.6666H63.3333V13.3333ZM37.6433 43.7366L51.7867 29.5966L56.5 34.31L37.6433 53.1666L24.6767 40.2L29.3933 35.4866L37.6433 43.7366Z" fill="#29292E"/>
<path d="M37.6434 43.7366L51.7868 29.5966L56.5001 34.3099L37.6434 53.1666L24.6768 40.1999L29.3934 35.4866L37.6434 43.7366Z" fill="#03B352"/>
</svg>
