<svg width="24" height="24" viewBox="0 0 24 24" fill="none" xmlns="http://www.w3.org/2000/svg">
<path d="M12 3.1L7.05 8.05C6.07111 9.029 5.40449 10.2763 5.13445 11.6341C4.86442 12.992 5.00308 14.3994 5.53292 15.6784C6.06275 16.9575 6.95996 18.0507 8.11109 18.8198C9.26222 19.589 10.6156 19.9995 12 19.9995C13.3844 19.9995 14.7378 19.589 15.8889 18.8198C17.04 18.0507 17.9373 16.9575 18.4671 15.6784C18.9969 14.3994 19.1356 12.992 18.8656 11.6341C18.5955 10.2763 17.9289 9.029 16.95 8.05L12 3.1ZM12 0.272003L18.364 6.636C19.6227 7.89468 20.4798 9.49833 20.8271 11.2442C21.1743 12.99 20.9961 14.7996 20.3149 16.4441C19.6337 18.0886 18.4802 19.4942 17.0001 20.4832C15.5201 21.4721 13.78 21.9999 12 21.9999C10.22 21.9999 8.47992 21.4721 6.99988 20.4832C5.51984 19.4942 4.36629 18.0886 3.6851 16.4441C3.00391 14.7996 2.82567 12.99 3.17293 11.2442C3.52019 9.49833 4.37734 7.89468 5.636 6.636L12 0.272003Z" fill="#41414D"/>
</svg>
